<?xml version="1.0" encoding="UTF-8" standalone="no"?>
<!DOCTYPE svg PUBLIC "-//W3C//DTD SVG 1.1//EN" "http://www.w3.org/Graphics/SVG/1.1/DTD/svg11.dtd">
<svg width="100%" height="100%" viewBox="0 0 100 100" version="1.1" xmlns="http://www.w3.org/2000/svg" xmlns:xlink="http://www.w3.org/1999/xlink" xml:space="preserve" xmlns:serif="http://www.serif.com/" style="fill-rule:evenodd;clip-rule:evenodd;stroke-linejoin:round;stroke-miterlimit:2;">
    <g transform="matrix(0.954626,0,0,0.950975,1.31409,1.50077)">
        <path d="M98.093,43.667L81.193,33.908C81.335,33.437 81.434,32.949 81.434,32.432C81.434,30.955 80.789,29.552 79.686,28.579C79.714,28.336 79.729,28.099 79.729,27.861C79.729,24.054 76.632,20.957 72.825,20.957C71.522,20.957 70.255,21.331 69.16,22.026C68.014,20.149 65.938,18.947 63.699,18.947C61.817,18.947 60.129,19.77 58.959,21.069L53.112,17.694C52.364,17.262 51.545,17.02 50.713,16.948C50.144,13.958 47.514,11.691 44.362,11.691C42.948,11.691 41.592,12.153 40.476,13.005C38.811,11.976 36.913,11.435 34.946,11.435C29.827,11.435 25.492,15.101 24.579,20.076C22.855,20.266 21.255,20.979 19.959,22.131C18.035,21.003 15.855,20.41 13.613,20.41C6.658,20.41 1,26.068 1,33.023C1,36.214 2.241,39.325 4.423,41.651C4.014,42.654 3.799,43.737 3.799,44.816C3.799,46.497 4.318,48.159 5.266,49.548C5.115,50.08 5.038,50.623 5.038,51.168C5.038,53.915 6.842,56.272 9.419,57.022C9.672,59.469 11.746,61.383 14.257,61.383C14.648,61.383 15.034,61.334 15.408,61.242C15.904,62.301 16.708,63.209 17.755,63.814L62.737,89.785C63.636,90.303 64.64,90.564 65.644,90.564C66.648,90.564 67.652,90.302 68.551,89.785L98.09,72.728C99.889,71.691 100.997,69.771 100.997,67.693L101,48.703C101,46.625 99.892,44.707 98.093,43.667ZM60.518,21.971C61.35,21.184 62.465,20.693 63.699,20.693C65.603,20.693 67.345,21.889 68.034,23.668L68.487,24.841L69.425,24.006C70.37,23.166 71.577,22.703 72.824,22.703C75.67,22.703 77.984,25.018 77.984,27.863C77.984,28.155 77.952,28.453 77.887,28.773L77.775,29.331L78.239,29.659C79.148,30.3 79.689,31.337 79.689,32.434C79.689,32.631 79.663,32.821 79.631,33.009C79.356,34.612 77.966,35.838 76.285,35.838C74.85,35.838 73.565,34.93 73.088,33.578L72.902,33.054L72.351,33C71.599,32.927 70.853,32.678 70.192,32.279L69.514,31.869L69.041,32.504C68.242,33.577 66.975,34.218 65.651,34.218C63.314,34.218 61.413,32.316 61.416,29.879L61.438,29.398L61.043,29.122C59.798,28.251 59.054,26.835 59.054,25.336C59.055,24.009 59.621,22.818 60.518,21.971ZM57.929,59.959C57.829,60.775 57.59,61.541 57.227,62.236C56.258,64.093 54.459,65.435 52.235,65.732L51.559,65.822L51.483,66.5C51.219,68.873 49.217,70.662 46.827,70.662C44.244,70.662 42.142,68.56 42.142,65.978C42.142,65.64 42.183,65.296 42.262,64.958L42.412,64.313L41.833,63.995C40.362,63.186 39.397,61.77 39.186,60.112L39.105,59.479L38.479,59.364C36.527,59.005 35.111,57.298 35.111,55.303L35.147,54.6L34.706,54.327C34.558,54.235 34.412,54.137 34.271,54.032L33.825,53.704L33.338,53.968C32.272,54.546 31.068,54.851 29.858,54.851C27.833,54.851 25.949,54.043 24.555,52.577L24.065,52.06L23.461,52.437C22.975,52.742 22.453,52.981 21.911,53.15L21.36,53.322L21.302,53.894C21.099,55.894 19.562,57.466 17.564,57.718L17.146,57.771L16.928,58.132C16.48,58.872 15.735,59.374 14.903,59.554C14.692,59.597 14.479,59.638 14.259,59.638C12.539,59.638 11.139,58.238 11.139,56.517L11.184,55.591L10.416,55.462C8.311,55.108 6.783,53.303 6.783,51.167C6.783,50.673 6.873,50.179 7.052,49.699L7.22,49.246L6.926,48.863C6.035,47.707 5.545,46.269 5.545,44.815C5.545,43.795 5.787,42.772 6.246,41.854L6.532,41.281L6.071,40.837C3.958,38.799 2.746,35.951 2.746,33.024C2.746,27.031 7.621,22.155 13.614,22.155C15.748,22.155 17.816,22.779 19.594,23.959L20.204,24.364L20.709,23.833C21.932,22.545 23.583,21.813 25.359,21.771L26.119,21.752L26.205,20.997C26.703,16.613 30.543,13.18 34.946,13.18C36.777,13.18 38.537,13.742 40.036,14.806L40.621,15.221L41.141,14.727C42.019,13.895 43.162,13.436 44.362,13.436C46.588,13.436 48.448,14.988 48.945,17.064C49.03,17.418 49.087,17.782 49.087,18.161C49.087,20.724 47.003,22.843 44.442,22.886L43.73,22.898L43.599,23.598C43.241,25.511 42.235,27.279 40.766,28.577L40.278,29.008L40.553,29.599C40.961,30.473 41.177,31.441 41.177,32.399C41.177,33.878 40.671,35.336 39.752,36.503L39.444,36.894L39.624,37.358C39.839,37.913 39.948,38.484 39.948,39.055C39.948,39.824 39.756,40.594 39.393,41.281L38.892,42.23L39.923,42.527C42.037,43.136 43.741,44.82 44.37,46.921L44.537,47.476L45.113,47.538C47.26,47.769 48.915,49.574 48.962,51.735L48.984,52.777L50.006,52.572C50.438,52.484 50.882,52.439 51.325,52.439C55.009,52.439 58.005,55.437 58.005,59.119C58.004,59.404 57.963,59.682 57.929,59.959ZM95.768,49.71L70.182,64.48C67.944,65.867 66.837,67.837 66.826,70.513L66.809,70.513L66.809,84.75C66.809,85.393 66.288,85.914 65.646,85.914C65.004,85.914 64.483,85.393 64.483,84.75L64.483,70.221C64.398,67.799 63.383,65.967 61.398,64.647L58.75,63.118C59.117,62.43 59.383,61.682 59.548,60.893L62.084,62.358L62.102,62.331C64.494,63.698 66.836,63.698 69.228,62.331L69.236,62.345L94.606,47.697C95.161,47.376 95.873,47.566 96.195,48.123C96.515,48.678 96.324,49.389 95.768,49.71Z" style="fill:rgb(17,70,126);fill-rule:nonzero;"/>
    </g>
</svg>
